<svg xmlns="http://www.w3.org/2000/svg" viewBox="0 0 40 40" width="40" height="40" fill="none">
  <defs>
    <linearGradient id="katsu-logo" x1="0" y1="0" x2="1" y2="1">
      <stop offset="0%" stop-color="#38bdf8"/>
      <stop offset="55%" stop-color="#6366f1"/>
      <stop offset="100%" stop-color="#c084fc"/>
    </linearGradient>
  </defs>
  <rect x="1" y="1" width="38" height="38" rx="12" fill="url(#katsu-logo)" opacity="0.16"/>
  <rect x="1.5" y="1.5" width="37" height="37" rx="11.5" stroke="url(#katsu-logo)" stroke-opacity="0.55"/>
  <path d="M11 21.4c-2.3 0-4.1-1.8-4.1-4.1 0-2.1 1.6-3.8 3.6-4.1C11.4 10.3 14.2 8 17.6 8c3.7 0 6.8 2.8 7.2 6.5 2.4.3 4.3 2.4 4.3 4.9 0 2.7-2.2 4.9-4.9 4.9H11z" fill="url(#katsu-logo)"/>
  <path d="M20 18.5v10m0 0-3.8-3.8M20 28.5l3.8-3.8" stroke="#f8fafc" stroke-width="2.6" stroke-linecap="round" stroke-linejoin="round"/>
</svg>
